<svg xmlns:xlink="http://www.w3.org/1999/xlink" height="400" width="800" version="1.1" xmlns="http://www.w3.org/2000/svg"><defs><clipPath id="highcharts-5"><rect stroke-width="0" height="298" width="653" y="0" x="0" fill="none" ry="0" rx="0"></rect></clipPath></defs><rect stroke="#4572A7" stroke-width="0" height="400" width="800" y="0" x="0" fill="#FFFFFF" ry="5" rx="5"></rect><text  class="highcharts-title" text-anchor="middle" style="font-family:'lucida grande', 'lucida sans unicode', verdana, arial, helvetica, sans-serif;font-size:16px;color:#3e576f;fill:#3e576f;" y="25" x="400"><tspan x="400">2012-03 与指定月份通话量和时间比较图</tspan></text><g  class="highcharts-grid"></g><g  class="highcharts-grid"><path stroke-width="1" stroke="#C0C0C0" fill="none" d="M 75 338.5 L 728 338.5"></path><path stroke-width="1" stroke="#C0C0C0" fill="none" d="M 75 278.5 L 728 278.5"></path><path stroke-width="1" stroke="#C0C0C0" fill="none" d="M 75 219.5 L 728 219.5"></path><path stroke-width="1" stroke="#C0C0C0" fill="none" d="M 75 159.5 L 728 159.5"></path><path stroke-width="1" stroke="#C0C0C0" fill="none" d="M 75 100.5 L 728 100.5"></path><path stroke-width="1" stroke="#C0C0C0" fill="none" d="M 75 40.5 L 728 40.5"></path></g><g  class="highcharts-grid"><path stroke-width="1" stroke="#C0C0C0" fill="none" d="M 75 338.5 L 728 338.5"></path><path stroke-width="1" stroke="#C0C0C0" fill="none" d="M 75 278.5 L 728 278.5"></path><path stroke-width="1" stroke="#C0C0C0" fill="none" d="M 75 219.5 L 728 219.5"></path><path stroke-width="1" stroke="#C0C0C0" fill="none" d="M 75 159.5 L 728 159.5"></path><path stroke-width="1" stroke="#C0C0C0" fill="none" d="M 75 100.5 L 728 100.5"></path><path stroke-width="1" stroke="#C0C0C0" fill="none" d="M 75 40.5 L 728 40.5"></path></g><g  class="highcharts-series-group"><g transform="translate(75,40)" visibility="visible" clip-path="url(#highcharts-5)" class="highcharts-series"><rect transform="translate(1,1)" stroke-opacity="0.05"  r="0" stroke="rgb(0, 0, 0)" stroke-width="5" height="229" width="76" y="67.5" x="42.5" fill="none" ry="0" rx="0"></rect><rect transform="translate(1,1)" stroke-opacity="0.1"  r="0" stroke="rgb(0, 0, 0)" stroke-width="3" height="229" width="76" y="67.5" x="42.5" fill="none" ry="0" rx="0"></rect><rect transform="translate(1,1)" stroke-opacity="0.15000000000000002"  r="0" stroke="rgb(0, 0, 0)" stroke-width="1" height="229" width="76" y="67.5" x="42.5" fill="none" ry="0" rx="0"></rect><rect r="0" stroke="#FFFFFF" stroke-width="1" height="229" width="76" y="67.5" x="42.5" fill="#4572A7" ry="0" rx="0"></rect><rect transform="translate(1,1)" stroke-opacity="0.05"  r="0" stroke="rgb(0, 0, 0)" stroke-width="5" height="150" width="76" y="146.5" x="205.5" fill="none" ry="0" rx="0"></rect><rect transform="translate(1,1)" stroke-opacity="0.1"  r="0" stroke="rgb(0, 0, 0)" stroke-width="3" height="150" width="76" y="146.5" x="205.5" fill="none" ry="0" rx="0"></rect><rect transform="translate(1,1)" stroke-opacity="0.15000000000000002"  r="0" stroke="rgb(0, 0, 0)" stroke-width="1" height="150" width="76" y="146.5" x="205.5" fill="none" ry="0" rx="0"></rect><rect r="0" stroke="#FFFFFF" stroke-width="1" height="150" width="76" y="146.5" x="205.5" fill="#4572A7" ry="0" rx="0"></rect><rect transform="translate(1,1)" stroke-opacity="0.05"  r="0" stroke="rgb(0, 0, 0)" stroke-width="5" height="167" width="76" y="129.5" x="368.5" fill="none" ry="0" rx="0"></rect><rect transform="translate(1,1)" stroke-opacity="0.1"  r="0" stroke="rgb(0, 0, 0)" stroke-width="3" height="167" width="76" y="129.5" x="368.5" fill="none" ry="0" rx="0"></rect><rect transform="translate(1,1)" stroke-opacity="0.15000000000000002"  r="0" stroke="rgb(0, 0, 0)" stroke-width="1" height="167" width="76" y="129.5" x="368.5" fill="none" ry="0" rx="0"></rect><rect r="0" stroke="#FFFFFF" stroke-width="1" height="167" width="76" y="129.5" x="368.5" fill="#4572A7" ry="0" rx="0"></rect><rect transform="translate(1,1)" stroke-opacity="0.05"  r="0" stroke="rgb(0, 0, 0)" stroke-width="5" height="1" width="76" y="295.5" x="532.5" fill="none" ry="0" rx="0"></rect><rect transform="translate(1,1)" stroke-opacity="0.1"  r="0" stroke="rgb(0, 0, 0)" stroke-width="3" height="1" width="76" y="295.5" x="532.5" fill="none" ry="0" rx="0"></rect><rect transform="translate(1,1)" stroke-opacity="0.15000000000000002"  r="0" stroke="rgb(0, 0, 0)" stroke-width="1" height="1" width="76" y="295.5" x="532.5" fill="none" ry="0" rx="0"></rect><rect r="0" stroke="#000000" stroke-width="1" height="1" width="76" y="295.5" x="532.5" fill="#C0C0C0" ry="0" rx="0"></rect></g><g transform="translate(75,40)" visibility="visible" clip-path="url(#highcharts-5)" class="highcharts-series"><path transform="translate(1,1)" stroke-opacity="0.05"  stroke-width="5" stroke="rgb(0, 0, 0)" fill="none" d="M 81.625 81.78312 L 244.875 195.03206 L 408.125 190.67232 L 571.375 297.57088"></path><path transform="translate(1,1)" stroke-opacity="0.1"  stroke-width="3" stroke="rgb(0, 0, 0)" fill="none" d="M 81.625 81.78312 L 244.875 195.03206 L 408.125 190.67232 L 571.375 297.57088"></path><path transform="translate(1,1)" stroke-opacity="0.15000000000000002"  stroke-width="1" stroke="rgb(0, 0, 0)" fill="none" d="M 81.625 81.78312 L 244.875 195.03206 L 408.125 190.67232 L 571.375 297.57088"></path><path stroke-width="2" stroke="#AA4643" fill="none" d="M 81.625 81.78312 L 244.875 195.03206 L 408.125 190.67232 L 571.375 297.57088"></path><circle fill="#FFFFFF" stroke-width="2" stroke="#000000" r="4" cy="297.57088" cx="571.375"></circle><circle fill="#AA4643" stroke-width="0" stroke="#FFFFFF" r="4" cy="190.67232" cx="408.125"></circle><circle fill="#AA4643" stroke-width="0" stroke="#FFFFFF" r="4" cy="195.03206" cx="244.875"></circle><circle fill="#AA4643" stroke-width="0" stroke="#FFFFFF" r="4" cy="81.78312" cx="81.625"></circle></g></g><g transform="translate(75,40)"  visibility="visible" class="highcharts-data-labels"><text  text-anchor="middle" style="font-family:'lucida grande', 'lucida sans unicode', verdana, arial, helvetica, sans-serif;font-size:11px;color:#4572a7;line-height:14px;fill:#4572a7;" y="62" x="82"><tspan x="82">966次</tspan></text><text  text-anchor="middle" style="font-family:'lucida grande', 'lucida sans unicode', verdana, arial, helvetica, sans-serif;font-size:11px;color:#4572a7;line-height:14px;fill:#4572a7;" y="140" x="245"><tspan x="245">637次</tspan></text><text  text-anchor="middle" style="font-family:'lucida grande', 'lucida sans unicode', verdana, arial, helvetica, sans-serif;font-size:11px;color:#4572a7;line-height:14px;fill:#4572a7;" y="124" x="408"><tspan x="408">706次</tspan></text><text  text-anchor="middle" style="font-family:'lucida grande', 'lucida sans unicode', verdana, arial, helvetica, sans-serif;font-size:11px;color:#4572a7;line-height:14px;fill:#4572a7;" y="290" x="571"><tspan x="571">9次</tspan></text></g><g transform="translate(75,40)"  visibility="visible" class="highcharts-data-labels"><text  text-anchor="middle" style="font-family:'lucida grande', 'lucida sans unicode', verdana, arial, helvetica, sans-serif;font-size:11px;color:#aa4643;line-height:14px;fill:#aa4643;" y="76" x="82"><tspan x="82">1209分钟</tspan></text><text  text-anchor="middle" style="font-family:'lucida grande', 'lucida sans unicode', verdana, arial, helvetica, sans-serif;font-size:11px;color:#aa4643;line-height:14px;fill:#aa4643;" y="189" x="245"><tspan x="245">575分钟</tspan></text><text  text-anchor="middle" style="font-family:'lucida grande', 'lucida sans unicode', verdana, arial, helvetica, sans-serif;font-size:11px;color:#aa4643;line-height:14px;fill:#aa4643;" y="185" x="408"><tspan x="408">600分钟</tspan></text><text  text-anchor="middle" style="font-family:'lucida grande', 'lucida sans unicode', verdana, arial, helvetica, sans-serif;font-size:11px;color:#aa4643;line-height:14px;fill:#aa4643;" y="292" x="571"><tspan x="571">2分钟</tspan></text></g><g transform="translate(303,363)"  class="highcharts-legend"><rect visibility="visible" stroke="#909090" stroke-width="1" height="21" width="194" y="0.5" x="0.5" fill="none" ry="5" rx="5"></rect><text  style="font-family:'lucida grande', 'lucida sans unicode', verdana, arial, helvetica, sans-serif;font-size:12px;cursor:pointer;color:#3e576f;fill:#3e576f;" y="18" x="30"><tspan x="30">通话量</tspan></text><text  style="font-family:'lucida grande', 'lucida sans unicode', verdana, arial, helvetica, sans-serif;font-size:12px;cursor:pointer;color:#3e576f;fill:#3e576f;" y="18" x="112"><tspan x="112">通话时间</tspan></text><path transform="translate(112,14)" stroke="#AA4643"  stroke-width="2" fill="none" d="M -21 0 L -5 0"></path><rect r="0" stroke="#FFFFFF"  stroke-width="1" height="12" width="16" y="7.5" x="9.5" fill="#4572A7" ry="2" rx="2"></rect><circle fill="#AA4643" stroke-width="0" stroke="#FFFFFF"  r="4" cy="14" cx="99"></circle></g><g  class="highcharts-axis"><text text-anchor="middle" style="font-family:'lucida grande', 'lucida sans unicode', verdana, arial, helvetica, sans-serif;font-size:11px;width:145px;color:#666;line-height:14px;fill:#666;" y="352" x="156.625"><tspan x="156.625">2011-11月</tspan></text><text text-anchor="middle" style="font-family:'lucida grande', 'lucida sans unicode', verdana, arial, helvetica, sans-serif;font-size:11px;width:145px;color:#666;line-height:14px;fill:#666;" y="352" x="319.875"><tspan x="319.875">2012-01月</tspan></text><text text-anchor="middle" style="font-family:'lucida grande', 'lucida sans unicode', verdana, arial, helvetica, sans-serif;font-size:11px;width:145px;color:#666;line-height:14px;fill:#666;" y="352" x="483.125"><tspan x="483.125">2012-02月</tspan></text><text text-anchor="middle" style="font-family:'lucida grande', 'lucida sans unicode', verdana, arial, helvetica, sans-serif;font-size:11px;width:145px;color:#666;line-height:14px;fill:#666;" y="352" x="646.375"><tspan x="646.375">2012-03月</tspan></text><path stroke-width="1" stroke="#C0D0E0" fill="none" d="M 238.5 338 L 238.5 343"></path><path stroke-width="1" stroke="#C0D0E0" fill="none" d="M 402.5 338 L 402.5 343"></path><path stroke-width="1" stroke="#C0D0E0" fill="none" d="M 565.5 338 L 565.5 343"></path><path stroke-width="1" stroke="#C0D0E0" fill="none" d="M 728.5 338 L 728.5 343"></path></g><g  class="highcharts-axis"><text text-anchor="end" style="font-family:'lucida grande', 'lucida sans unicode', verdana, arial, helvetica, sans-serif;font-size:11px;width:310px;color:#666;line-height:14px;fill:#666;" y="343.1" x="67"><tspan x="67">0</tspan></text><text text-anchor="end" style="font-family:'lucida grande', 'lucida sans unicode', verdana, arial, helvetica, sans-serif;font-size:11px;width:310px;color:#666;line-height:14px;fill:#666;" y="104.69999999999999" x="67"><tspan x="67">1,000</tspan></text><text text-anchor="end" style="font-family:'lucida grande', 'lucida sans unicode', verdana, arial, helvetica, sans-serif;font-size:11px;width:310px;color:#666;line-height:14px;fill:#666;" y="283.5" x="67"><tspan x="67">250</tspan></text><text text-anchor="end" style="font-family:'lucida grande', 'lucida sans unicode', verdana, arial, helvetica, sans-serif;font-size:11px;width:310px;color:#666;line-height:14px;fill:#666;" y="223.9" x="67"><tspan x="67">500</tspan></text><text text-anchor="end" style="font-family:'lucida grande', 'lucida sans unicode', verdana, arial, helvetica, sans-serif;font-size:11px;width:310px;color:#666;line-height:14px;fill:#666;" y="164.29999999999998" x="67"><tspan x="67">750</tspan></text><text text-anchor="end" style="font-family:'lucida grande', 'lucida sans unicode', verdana, arial, helvetica, sans-serif;font-size:11px;width:310px;color:#666;line-height:14px;fill:#666;" y="45.1" x="67"><tspan x="67">1,250</tspan></text></g><text text-anchor="middle" transform="rotate(270 22 189)"  style="font-family:'lucida grande', 'lucida sans unicode', verdana, arial, helvetica, sans-serif;font-size:12px;color:#6d869f;font-weight:bold;fill:#6d869f;" y="189" x="22"><tspan x="22">次</tspan></text><g  class="highcharts-axis"><text text-anchor="start" style="font-family:'lucida grande', 'lucida sans unicode', verdana, arial, helvetica, sans-serif;font-size:11px;width:310px;color:#666;line-height:14px;fill:#666;" y="343.1" x="736"><tspan x="736">0k</tspan></text><text text-anchor="start" style="font-family:'lucida grande', 'lucida sans unicode', verdana, arial, helvetica, sans-serif;font-size:11px;width:310px;color:#666;line-height:14px;fill:#666;" y="283.5" x="736"><tspan x="736">20k</tspan></text><text text-anchor="start" style="font-family:'lucida grande', 'lucida sans unicode', verdana, arial, helvetica, sans-serif;font-size:11px;width:310px;color:#666;line-height:14px;fill:#666;" y="223.9" x="736"><tspan x="736">40k</tspan></text><text text-anchor="start" style="font-family:'lucida grande', 'lucida sans unicode', verdana, arial, helvetica, sans-serif;font-size:11px;width:310px;color:#666;line-height:14px;fill:#666;" y="164.29999999999998" x="736"><tspan x="736">60k</tspan></text><text text-anchor="start" style="font-family:'lucida grande', 'lucida sans unicode', verdana, arial, helvetica, sans-serif;font-size:11px;width:310px;color:#666;line-height:14px;fill:#666;" y="104.69999999999999" x="736"><tspan x="736">80k</tspan></text><text text-anchor="start" style="font-family:'lucida grande', 'lucida sans unicode', verdana, arial, helvetica, sans-serif;font-size:11px;width:310px;color:#666;line-height:14px;fill:#666;" y="45.1" x="736"><tspan x="736">100k</tspan></text></g><text text-anchor="middle" transform="rotate(90 778 189)"  style="font-family:'lucida grande', 'lucida sans unicode', verdana, arial, helvetica, sans-serif;font-size:12px;color:#aa4643;font-weight:bold;fill:#aa4643;" y="189" x="778"><tspan x="778">秒</tspan></text><path  stroke-width="1" stroke="#C0D0E0" fill="none" d="M 75 338.5 L 728 338.5"></path><g visibility="hidden"  class="highcharts-tooltip"><rect transform="translate(1,1)" stroke-opacity="0.05" stroke="rgb(0, 0, 0)"  fill-opacity="0.85" stroke-width="5" height="0" width="0" y="2" x="2" fill="none" ry="5" rx="5"></rect><rect transform="translate(1,1)" stroke-opacity="0.1" stroke="rgb(0, 0, 0)"  fill-opacity="0.85" stroke-width="3" height="0" width="0" y="2" x="2" fill="none" ry="5" rx="5"></rect><rect transform="translate(1,1)" stroke-opacity="0.15000000000000002" stroke="rgb(0, 0, 0)"  fill-opacity="0.85" stroke-width="1" height="0" width="0" y="2" x="2" fill="none" ry="5" rx="5"></rect><rect fill-opacity="0.85" stroke-width="2" height="0" width="0" y="2" x="2" fill="rgb(255,255,255)" ry="5" rx="5"></rect><text  style="font-family:'lucida grande', 'lucida sans unicode', verdana, arial, helvetica, sans-serif;font-size:12px;color:#333333;padding:0;white-space:nowrap;fill:#333333;" y="14" x="2"><tspan x="2"> </tspan></text></g><g transform="translate(75,40)"  class="highcharts-tracker"><rect style=""  visibility="visible" fill-opacity="0.000001"  stroke-width="0" height="230" width="77" y="67" x="42" fill="rgb(192,192,192)" ry="0" rx="0"></rect><rect style=""  visibility="visible" fill-opacity="0.000001"  stroke-width="0" height="151" width="77" y="146" x="205" fill="rgb(192,192,192)" ry="0" rx="0"></rect><rect style=""  visibility="visible" fill-opacity="0.000001"  stroke-width="0" height="168" width="77" y="129" x="368" fill="rgb(192,192,192)" ry="0" rx="0"></rect><rect style=""  visibility="visible" fill-opacity="0.000001"  stroke-width="0" height="2" width="77" y="295" x="532" fill="rgb(192,192,192)" ry="0" rx="0"></rect><path style=""  visibility="visible" stroke-width="22" stroke="rgb(192,192,192)" stroke-opacity="0.000001"  fill="none" d="M 71.625 81.78312 L 81.625 81.78312 L 244.875 195.03206 L 408.125 190.67232 L 571.375 297.57088 L 581.375 297.57088"></path></g></svg>